<svg width="173" height="155" viewBox="0 0 173 155" fill="none" xmlns="http://www.w3.org/2000/svg">
<g filter="url(#filter0_d)">
<path fill-rule="evenodd" clip-rule="evenodd" d="M151.944 80.5584C150.02 51.8544 46.7835 -3.54701 27.6172 23.6405C8.451 50.828 26.8771 101.853 67.041 114.918C107.205 127.984 153.868 109.262 151.944 80.5584Z" fill="#CBE9FF"/>
</g>
<g filter="url(#filter1_d)">
<path d="M70.844 95.5237L63 111.189V124.831C63 126.037 63.4791 127.193 64.3319 128.046C65.1846 128.899 66.3413 129.378 67.5473 129.378H103.925C105.131 129.378 106.288 128.899 107.141 128.046C107.994 127.193 108.473 126.037 108.473 124.831V111.189L100.629 95.5237C100.252 94.7661 99.6718 94.1286 98.9529 93.6827C98.2339 93.2369 97.4048 93.0004 96.5588 93H74.9138C74.0679 93.0004 73.2388 93.2369 72.5198 93.6827C71.8008 94.1286 71.2205 94.7661 70.844 95.5237Z" fill="#CBE9FF" stroke="#0078D7" stroke-width="2" stroke-linecap="round" stroke-linejoin="round"/>
<path d="M108.473 111.189H94.8309L90.2836 118.01H81.1891L76.6418 111.189H63" stroke="#0078D7" stroke-width="2" stroke-linecap="round" stroke-linejoin="round"/>
</g>
<path d="M78.5 83.5L70 75" stroke="black" stroke-opacity="0.4" stroke-linecap="round" stroke-linejoin="round"/>
<path d="M80 85L60 78L69 74L73 65L80 85Z" stroke="black" stroke-opacity="0.4" stroke-linecap="round" stroke-linejoin="round"/>
<path d="M168 23.1124C148.683 18.8891 109.549 15.6689 107.551 36.5741C105.053 62.7056 72.5805 46.0763 60.091 36.5741C47.6015 27.0719 24.6209 33.8027 38.1095 50.0359C48.9004 63.0225 61.923 70.7564 67.0854 73" stroke="black" stroke-opacity="0.6" stroke-linecap="round" stroke-linejoin="round" stroke-dasharray="1 4"/>
<defs>
<filter id="filter0_d" x="0.00195694" y="0.337646" width="172" height="142.821" filterUnits="userSpaceOnUse" color-interpolation-filters="sRGB">
<feFlood flood-opacity="0" result="BackgroundImageFix"/>
<feColorMatrix in="SourceAlpha" type="matrix" values="0 0 0 0 0 0 0 0 0 0 0 0 0 0 0 0 0 0 127 0"/>
<feOffset dy="4"/>
<feGaussianBlur stdDeviation="10"/>
<feColorMatrix type="matrix" values="0 0 0 0 0 0 0 0 0 0 0 0 0 0 0 0 0 0 0.1 0"/>
<feBlend mode="normal" in2="BackgroundImageFix" result="effect1_dropShadow"/>
<feBlend mode="normal" in="SourceGraphic" in2="effect1_dropShadow" result="shape"/>
</filter>
<filter id="filter1_d" x="42" y="76" width="87.4727" height="78.3781" filterUnits="userSpaceOnUse" color-interpolation-filters="sRGB">
<feFlood flood-opacity="0" result="BackgroundImageFix"/>
<feColorMatrix in="SourceAlpha" type="matrix" values="0 0 0 0 0 0 0 0 0 0 0 0 0 0 0 0 0 0 127 0"/>
<feOffset dy="4"/>
<feGaussianBlur stdDeviation="10"/>
<feColorMatrix type="matrix" values="0 0 0 0 0 0 0 0 0 0.470588 0 0 0 0 0.843137 0 0 0 0.3 0"/>
<feBlend mode="normal" in2="BackgroundImageFix" result="effect1_dropShadow"/>
<feBlend mode="normal" in="SourceGraphic" in2="effect1_dropShadow" result="shape"/>
</filter>
</defs>
</svg>
